# xmcd
#
# Track frame offsets:
# 150
# 11650
# 27083
# 41955
# 52481
# 59401
# 75312
# 82414
# 95083
# 110390
# 126644
# 147424
# 171618
# 184880
# 195088
# 209701
# 224572
# 254288
# 269888
# 287970
#
# Disc length: 3974 seconds
#
#
# Revision: 0
# Processed by: cddbd v1.5.1PL2 Copyright (c) Steve Scherf et al.
# Submitted via: FreeRIP 2.944 
#
DISCID=520f8414
DTITLE=Willie Nelson - Live from austintx (Austin City Limits)
DYEAR=1990
DGENRE=Country
TTITLE0=Whiskey River
TTITLE1=Stay a Little Longer
TTITLE2=Good-hearted Woman
TTITLE3=Funny
TTITLE4=Crazy
TTITLE5=Night Life
TTITLE6=If You've Got the Money I've Got the Time
TTITLE7=Nothing I Can DO About It Now
TTITLE8=Help Me Make it Through the Night
TTITLE9=Me and Bobby McGee
TTITLE10=Loving Her Was Easier (Than Anything I'll Ever Do Again)
TTITLE11=Bloody Mary Morning
TTITLE12=Blue Eyes Crying In the Rain
TTITLE13=On the Road Again
TTITLE14=Always on My Mind
TTITLE15=Still is Still Moving to Me w/ Shelby Lynne
TTITLE16=Milk Cow Blues w/ Shelby Lynne
TTITLE17=Angel Flying too Close to the Ground
TTITLE18=The Working Man's Blues
TTITLE19=I Saw the Light
EXTD=
EXTT0=
EXTT1=
EXTT2=
EXTT3=
EXTT4=
EXTT5=
EXTT6=
EXTT7=
EXTT8=
EXTT9=
EXTT10=
EXTT11=
EXTT12=
EXTT13=
EXTT14=
EXTT15=
EXTT16=
EXTT17=
EXTT18=
EXTT19=
PLAYORDER=
